<svg width="12" height="12" viewBox="0 0 12 12" fill="none" xmlns="http://www.w3.org/2000/svg">
<path fill-rule="evenodd" clip-rule="evenodd" d="M0.335004 10.0462C-0.111933 10.4931 -0.111932 11.2177 0.335004 11.6647C0.78194 12.1116 1.50657 12.1116 1.9535 11.6647L5.99984 7.61832L10.0463 11.6648C10.4933 12.1117 11.2179 12.1117 11.6648 11.6648C12.1118 11.2179 12.1118 10.4932 11.6648 10.0463L7.61834 5.99982L11.6645 1.95366C12.1114 1.50673 12.1114 0.7821 11.6645 0.335164C11.2176 -0.111772 10.4929 -0.111772 10.046 0.335164L5.99984 4.38132L1.95384 0.335318C1.5069 -0.111618 0.782272 -0.111618 0.335335 0.335318C-0.111601 0.782254 -0.111601 1.50688 0.335335 1.95382L4.38134 5.99982L0.335004 10.0462Z" fill="white"/>
</svg>
