<svg width="57" height="56" viewBox="0 0 57 56" fill="none" xmlns="http://www.w3.org/2000/svg">
<path fill-rule="evenodd" clip-rule="evenodd" d="M11.5054 40.1387C10.1646 41.4795 10.1646 43.6533 11.5054 44.9941C12.8462 46.335 15.0201 46.335 16.3609 44.9942L28.4996 32.8555L40.6387 44.9946C41.9795 46.3354 44.1534 46.3354 45.4942 44.9946C46.835 43.6538 46.835 41.4799 45.4942 40.1391L33.3551 28L45.4939 15.8612C46.8347 14.5204 46.8347 12.3465 45.4939 11.0057C44.1531 9.66487 41.9792 9.66487 40.6384 11.0057L28.4996 23.1445L16.3612 11.0061C15.0204 9.66534 12.8465 9.66534 11.5057 11.0061C10.1649 12.347 10.1649 14.5208 11.5057 15.8616L23.6441 28L11.5054 40.1387Z" fill="#C7302B"/>
</svg>
