<svg width="37" height="28" viewBox="0 0 37 28" fill="none" xmlns="http://www.w3.org/2000/svg">
<path d="M5.98466 15.0672C5.36787 14.557 4.56416 14.2802 3.73474 14.2923C2.90533 14.3044 2.11155 14.6045 1.51265 15.1323C0.913746 15.6602 0.554012 16.3769 0.505605 17.1385C0.457198 17.9001 0.723699 18.6504 1.25165 19.2389L8.54836 26.2824C8.85386 26.5772 9.22095 26.8121 9.62761 26.9732C10.0343 27.1342 10.4721 27.218 10.9149 27.2196C11.3553 27.2219 11.7917 27.1429 12.1982 26.9871C12.6047 26.8313 12.9731 26.6019 13.2814 26.3127L35.5659 5.15182C35.8681 4.86599 36.106 4.52823 36.2662 4.15782C36.4265 3.7874 36.5058 3.39159 36.4997 2.99299C36.4936 2.59438 36.4022 2.20078 36.2307 1.83466C36.0592 1.46855 35.811 1.13708 35.5002 0.859196C35.1894 0.581308 34.8222 0.362438 34.4194 0.215085C34.0167 0.0677312 33.5863 -0.00522157 33.1529 0.000392624C32.7195 0.00600682 32.2916 0.0900774 31.8935 0.247805C31.4955 0.405532 31.1351 0.633828 30.8329 0.919655L10.9477 19.8435L5.98466 15.0672Z" fill="#27AE60"/>
</svg>
